# xmcd
#
# Track frame offsets:
#	150
#	23770
#	43081
#	63276
#	79779
#	95100
#	109476
#	127736
#	140096
#	160924
#	177966
#	209015
#
# Disc length: 3033
#
# Revision: 1
# Processed by: cddbd v1.5.1PL0 Copyright (c) Steve Scherf et al.
# Submitted via: ExactAudioCopy v0.95a3
# Normalized: r0:TRMNUM
#
DISCID=ab0bd70c
DTITLE=Franklin and Harpe - Doin' The Dozens
DYEAR=2002
DGENRE=Blues
TTITLE0=Joliet Bound
TTITLE1=Stop Hanging Around
TTITLE2=Raidin' Squad Blues
TTITLE3=Pick Poor Robin Clean
TTITLE4=South Carolina Rag
TTITLE5=Stack O'Lee Blues
TTITLE6=Just Well Let Her Go
TTITLE7=If Blake Could See Me Now
TTITLE8=The Twelves (The Dirty Dozens)
TTITLE9=Beedle Um Bum
TTITLE10=32-30 Blues
TTITLE11=Keep It Clean
EXTD=
EXTT0=
EXTT1=
EXTT2=
EXTT3=
EXTT4=
EXTT5=
EXTT6=
EXTT7=
EXTT8=
EXTT9=
EXTT10=
EXTT11=
PLAYORDER=
